<mxfile host="Electron" modified="2023-10-26T19:05:16.523Z" agent="Mozilla/5.0 (Macintosh; Intel Mac OS X 10_15_7) AppleWebKit/537.36 (KHTML, like Gecko) draw.io/22.0.3 Chrome/114.0.5735.289 Electron/25.8.4 Safari/537.36" etag="VEvxo4rnNTy63HcRAgFm" version="22.0.3" type="device">
  <diagram name="Page-1" id="BXFynGVLz7lF0U7jTMFg">
    <mxGraphModel dx="388" dy="293" grid="1" gridSize="10" guides="1" tooltips="1" connect="1" arrows="1" fold="1" page="1" pageScale="1" pageWidth="827" pageHeight="1169" background="#ffffff" math="0" shadow="0">
      <root>
        <mxCell id="0" />
        <mxCell id="1" parent="0" />
        <mxCell id="xTPL5IAc7uuwvMtWUE6Y-2" value="Actor (Пользователь)" style="shape=umlActor;verticalLabelPosition=bottom;verticalAlign=top;html=1;outlineConnect=0;fillColor=none;strokeColor=#000000;fontColor=#000000;" vertex="1" parent="1">
          <mxGeometry x="80" y="410" width="30" height="60" as="geometry" />
        </mxCell>
        <mxCell id="xTPL5IAc7uuwvMtWUE6Y-5" value="&lt;br&gt;Регистрация" style="ellipse;whiteSpace=wrap;html=1;strokeColor=#000000;align=center;verticalAlign=top;fontFamily=Helvetica;fontSize=12;fontColor=#000000;fillColor=none;" vertex="1" parent="1">
          <mxGeometry x="260" y="560" width="120" height="60" as="geometry" />
        </mxCell>
        <mxCell id="xTPL5IAc7uuwvMtWUE6Y-6" value="" style="endArrow=none;html=1;rounded=0;fontFamily=Helvetica;fontSize=12;fontColor=#000000;strokeColor=#000000;entryX=0;entryY=0.5;entryDx=0;entryDy=0;exitX=1;exitY=0.3333333333333333;exitDx=0;exitDy=0;exitPerimeter=0;" edge="1" parent="1" source="xTPL5IAc7uuwvMtWUE6Y-2" target="xTPL5IAc7uuwvMtWUE6Y-5">
          <mxGeometry width="50" height="50" relative="1" as="geometry">
            <mxPoint x="110" y="570" as="sourcePoint" />
            <mxPoint x="160" y="520" as="targetPoint" />
          </mxGeometry>
        </mxCell>
        <mxCell id="xTPL5IAc7uuwvMtWUE6Y-8" value="&lt;span style=&quot;&quot;&gt;&lt;font style=&quot;font-size: 7px;&quot;&gt;&amp;lt;&amp;lt;Include&amp;gt;&amp;gt;&lt;/font&gt;&lt;/span&gt;" style="endArrow=openThin;html=1;rounded=0;labelBackgroundColor=none;strokeColor=#000000;align=center;verticalAlign=bottom;fontFamily=Helvetica;fontSize=12;fontColor=#000000;shape=connector;exitX=1;exitY=0.5;exitDx=0;exitDy=0;entryX=0;entryY=0.5;entryDx=0;entryDy=0;dashed=1;endFill=0;" edge="1" parent="1" source="xTPL5IAc7uuwvMtWUE6Y-5" target="xTPL5IAc7uuwvMtWUE6Y-9">
          <mxGeometry x="0.005" width="50" height="50" relative="1" as="geometry">
            <mxPoint x="420" y="580" as="sourcePoint" />
            <mxPoint x="470" y="530" as="targetPoint" />
            <mxPoint as="offset" />
          </mxGeometry>
        </mxCell>
        <mxCell id="xTPL5IAc7uuwvMtWUE6Y-9" value="&lt;br&gt;Войти в систему" style="ellipse;whiteSpace=wrap;html=1;strokeColor=#000000;align=center;verticalAlign=top;fontFamily=Helvetica;fontSize=12;fontColor=#000000;fillColor=none;" vertex="1" parent="1">
          <mxGeometry x="560" y="585" width="120" height="60" as="geometry" />
        </mxCell>
        <mxCell id="xTPL5IAc7uuwvMtWUE6Y-10" value="&lt;br&gt;Просмотр каталога" style="ellipse;whiteSpace=wrap;html=1;strokeColor=#000000;align=center;verticalAlign=top;fontFamily=Helvetica;fontSize=12;fontColor=#000000;fillColor=none;" vertex="1" parent="1">
          <mxGeometry x="280" y="420" width="120" height="60" as="geometry" />
        </mxCell>
        <mxCell id="xTPL5IAc7uuwvMtWUE6Y-11" value="" style="endArrow=none;html=1;rounded=0;fontFamily=Helvetica;fontSize=12;fontColor=#000000;strokeColor=#000000;entryX=0;entryY=0.5;entryDx=0;entryDy=0;exitX=1;exitY=0.3333333333333333;exitDx=0;exitDy=0;exitPerimeter=0;" edge="1" parent="1" source="xTPL5IAc7uuwvMtWUE6Y-2" target="xTPL5IAc7uuwvMtWUE6Y-10">
          <mxGeometry width="50" height="50" relative="1" as="geometry">
            <mxPoint x="120" y="440" as="sourcePoint" />
            <mxPoint x="270" y="600" as="targetPoint" />
          </mxGeometry>
        </mxCell>
        <mxCell id="xTPL5IAc7uuwvMtWUE6Y-12" value="&lt;br&gt;Просмотр товара" style="ellipse;whiteSpace=wrap;html=1;strokeColor=#000000;align=center;verticalAlign=top;fontFamily=Helvetica;fontSize=12;fontColor=#000000;fillColor=none;" vertex="1" parent="1">
          <mxGeometry x="490" y="420" width="120" height="60" as="geometry" />
        </mxCell>
        <mxCell id="xTPL5IAc7uuwvMtWUE6Y-13" value="&lt;span style=&quot;&quot;&gt;&lt;font style=&quot;font-size: 7px;&quot;&gt;&amp;lt;&amp;lt;Extend&amp;gt;&amp;gt;&lt;/font&gt;&lt;/span&gt;" style="endArrow=openThin;html=1;rounded=0;labelBackgroundColor=none;strokeColor=#000000;align=center;verticalAlign=bottom;fontFamily=Helvetica;fontSize=12;fontColor=#000000;shape=connector;exitX=0;exitY=0.5;exitDx=0;exitDy=0;entryX=1;entryY=0.5;entryDx=0;entryDy=0;dashed=1;endFill=0;" edge="1" parent="1" source="xTPL5IAc7uuwvMtWUE6Y-12" target="xTPL5IAc7uuwvMtWUE6Y-10">
          <mxGeometry x="0.005" width="50" height="50" relative="1" as="geometry">
            <mxPoint x="390" y="600" as="sourcePoint" />
            <mxPoint x="540" y="600" as="targetPoint" />
            <mxPoint as="offset" />
          </mxGeometry>
        </mxCell>
        <mxCell id="xTPL5IAc7uuwvMtWUE6Y-14" value="&lt;br&gt;Добавление товара в корзину" style="ellipse;whiteSpace=wrap;html=1;strokeColor=#000000;align=center;verticalAlign=top;fontFamily=Helvetica;fontSize=12;fontColor=#000000;fillColor=none;" vertex="1" parent="1">
          <mxGeometry x="380" y="310" width="140" height="70" as="geometry" />
        </mxCell>
        <mxCell id="xTPL5IAc7uuwvMtWUE6Y-15" value="&lt;span style=&quot;&quot;&gt;&lt;font style=&quot;font-size: 7px;&quot;&gt;&amp;lt;&amp;lt;Extend&amp;gt;&amp;gt;&lt;/font&gt;&lt;/span&gt;" style="endArrow=openThin;html=1;rounded=0;labelBackgroundColor=none;strokeColor=#000000;align=center;verticalAlign=bottom;fontFamily=Helvetica;fontSize=12;fontColor=#000000;shape=connector;exitX=0;exitY=1;exitDx=0;exitDy=0;entryX=0.5;entryY=0;entryDx=0;entryDy=0;dashed=1;endFill=0;" edge="1" parent="1" source="xTPL5IAc7uuwvMtWUE6Y-14" target="xTPL5IAc7uuwvMtWUE6Y-10">
          <mxGeometry x="0.005" width="50" height="50" relative="1" as="geometry">
            <mxPoint x="500" y="460" as="sourcePoint" />
            <mxPoint x="410" y="460" as="targetPoint" />
            <mxPoint as="offset" />
          </mxGeometry>
        </mxCell>
        <mxCell id="xTPL5IAc7uuwvMtWUE6Y-16" value="&lt;span style=&quot;&quot;&gt;&lt;font style=&quot;font-size: 7px;&quot;&gt;&amp;lt;&amp;lt;Extend&amp;gt;&amp;gt;&lt;/font&gt;&lt;/span&gt;" style="endArrow=openThin;html=1;rounded=0;labelBackgroundColor=none;strokeColor=#000000;align=center;verticalAlign=bottom;fontFamily=Helvetica;fontSize=12;fontColor=#000000;shape=connector;exitX=1;exitY=1;exitDx=0;exitDy=0;entryX=0.5;entryY=0;entryDx=0;entryDy=0;dashed=1;endFill=0;" edge="1" parent="1" source="xTPL5IAc7uuwvMtWUE6Y-14" target="xTPL5IAc7uuwvMtWUE6Y-12">
          <mxGeometry x="0.005" width="50" height="50" relative="1" as="geometry">
            <mxPoint x="510" y="470" as="sourcePoint" />
            <mxPoint x="420" y="470" as="targetPoint" />
            <mxPoint as="offset" />
          </mxGeometry>
        </mxCell>
        <mxCell id="xTPL5IAc7uuwvMtWUE6Y-17" value="" style="endArrow=none;html=1;rounded=0;fontFamily=Helvetica;fontSize=12;fontColor=#000000;strokeColor=#000000;entryX=0;entryY=0.5;entryDx=0;entryDy=0;" edge="1" parent="1" target="xTPL5IAc7uuwvMtWUE6Y-18">
          <mxGeometry width="50" height="50" relative="1" as="geometry">
            <mxPoint x="110" y="430" as="sourcePoint" />
            <mxPoint x="300" y="260" as="targetPoint" />
          </mxGeometry>
        </mxCell>
        <mxCell id="xTPL5IAc7uuwvMtWUE6Y-18" value="&lt;br&gt;Просмотр корзины&amp;nbsp;" style="ellipse;whiteSpace=wrap;html=1;strokeColor=#000000;align=center;verticalAlign=top;fontFamily=Helvetica;fontSize=12;fontColor=#000000;fillColor=none;" vertex="1" parent="1">
          <mxGeometry x="310" y="230" width="140" height="60" as="geometry" />
        </mxCell>
        <mxCell id="xTPL5IAc7uuwvMtWUE6Y-19" value="&lt;br&gt;Оформить заказ" style="ellipse;whiteSpace=wrap;html=1;strokeColor=#000000;align=center;verticalAlign=top;fontFamily=Helvetica;fontSize=12;fontColor=#000000;fillColor=none;" vertex="1" parent="1">
          <mxGeometry x="610" y="480" width="140" height="60" as="geometry" />
        </mxCell>
        <mxCell id="xTPL5IAc7uuwvMtWUE6Y-20" value="&lt;span style=&quot;&quot;&gt;&lt;font style=&quot;font-size: 7px;&quot;&gt;&amp;lt;&amp;lt;Extend&amp;gt;&amp;gt;&lt;/font&gt;&lt;/span&gt;" style="endArrow=openThin;html=1;rounded=0;labelBackgroundColor=none;strokeColor=#000000;align=center;verticalAlign=bottom;fontFamily=Helvetica;fontSize=12;fontColor=#000000;shape=connector;entryX=0.5;entryY=0;entryDx=0;entryDy=0;dashed=1;endFill=0;exitX=0.5;exitY=1;exitDx=0;exitDy=0;" edge="1" parent="1" source="xTPL5IAc7uuwvMtWUE6Y-19" target="xTPL5IAc7uuwvMtWUE6Y-9">
          <mxGeometry x="0.005" width="50" height="50" relative="1" as="geometry">
            <mxPoint x="620" y="550" as="sourcePoint" />
            <mxPoint x="560" y="430" as="targetPoint" />
            <mxPoint as="offset" />
          </mxGeometry>
        </mxCell>
      </root>
    </mxGraphModel>
  </diagram>
</mxfile>
